<svg width="828" height="828" viewBox="0 0 828 828" fill="none" xmlns="http://www.w3.org/2000/svg">
<circle cx="414" cy="414" r="414" fill="url(#paint0_linear_1_32)"/>
<g clip-path="url(#clip0_1_32)" filter="url(#filter0_i_1_32)">
<path d="M205.985 492.378C198.573 520.041 215.022 548.553 242.667 555.96L493.265 623.108C520.909 630.515 549.411 614.047 556.823 586.385L624.015 335.622C631.427 307.959 614.978 279.447 587.333 272.039L336.735 204.892C309.091 197.485 280.589 213.953 273.177 241.615L205.985 492.378ZM294.603 462.37C296.385 455.719 300.734 450.048 306.694 446.605C312.654 443.161 319.736 442.227 326.382 444.008C333.028 445.789 338.695 450.139 342.134 456.101C345.574 462.063 346.505 469.149 344.723 475.799C342.941 482.45 338.591 488.121 332.632 491.564C326.672 495.008 319.59 495.942 312.944 494.161C306.297 492.38 300.631 488.03 297.192 482.068C293.752 476.106 292.821 469.021 294.603 462.37ZM408.281 439.076C401.635 437.295 395.968 432.945 392.529 426.984C389.089 421.022 388.158 413.936 389.94 407.285C391.722 400.634 396.071 394.964 402.031 391.52C407.991 388.077 415.073 387.143 421.719 388.924C428.365 390.704 434.032 395.054 437.471 401.016C440.911 406.978 441.842 414.064 440.06 420.715C438.278 427.365 433.928 433.036 427.969 436.48C422.009 439.923 414.927 440.857 408.281 439.076ZM485.277 352.2C487.059 345.55 491.408 339.879 497.368 336.436C503.328 332.992 510.41 332.058 517.056 333.839C523.702 335.62 529.369 339.97 532.808 345.932C536.248 351.894 537.179 358.979 535.397 365.63C533.615 372.281 529.266 377.951 523.306 381.395C517.346 384.838 510.264 385.772 503.618 383.992C496.972 382.211 491.305 377.861 487.866 371.899C484.426 365.937 483.495 358.851 485.277 352.2Z" fill="white"/>
</g>
<defs>
<filter id="filter0_i_1_32" x="167.487" y="184.748" width="495.026" height="475.505" filterUnits="userSpaceOnUse" color-interpolation-filters="sRGB">
<feFlood flood-opacity="0" result="BackgroundImageFix"/>
<feBlend mode="normal" in="SourceGraphic" in2="BackgroundImageFix" result="shape"/>
<feColorMatrix in="SourceAlpha" type="matrix" values="0 0 0 0 0 0 0 0 0 0 0 0 0 0 0 0 0 0 127 0" result="hardAlpha"/>
<feOffset dy="17"/>
<feGaussianBlur stdDeviation="33.25"/>
<feComposite in2="hardAlpha" operator="arithmetic" k2="-1" k3="1"/>
<feColorMatrix type="matrix" values="0 0 0 0 0 0 0 0 0 0 0 0 0 0 0 0 0 0 0.25 0"/>
<feBlend mode="normal" in2="shape" result="effect1_innerShadow_1_32"/>
</filter>
<linearGradient id="paint0_linear_1_32" x1="414" y1="0" x2="414" y2="828" gradientUnits="userSpaceOnUse">
<stop stop-color="#7B5BF5"/>
<stop offset="1" stop-color="#1D55DC"/>
</linearGradient>
<clipPath id="clip0_1_32">
<rect width="363.453" height="415.102" fill="white" transform="translate(167.487 535.816) rotate(-75)"/>
</clipPath>
</defs>
</svg>
